<svg width="152" height="24" viewBox="0 0 152 24" fill="none" xmlns="http://www.w3.org/2000/svg">
<path d="M7.82112 2.75918C4.81739 3.47597 0.630755 5.16615 0.183819 5.7672C-0.263117 6.36824 0.235406 9.88457 0.314882 10.3181C0.394358 10.7516 0.625693 10.8167 0.755613 10.8094C0.885534 10.8021 1.96251 9.50438 2.4059 9.175C3.57285 8.30813 3.9632 8.06271 4.45 8.06717C4.97143 7.96785 6.05155 8.56377 7.20615 8.00509C8.33948 7.45671 9.47399 7.07396 9.92507 6.99947C10.5246 6.96358 12.2477 7.18035 14.3447 8.33447C16.4416 9.4886 18.3204 10.1022 18.9977 10.2648C19.3405 10.347 20.0075 10.6996 20.2671 10.0819C20.5917 9.30979 20.4099 6.81054 20.4099 6.394C20.4099 6.06076 20.3147 5.95845 20.2671 5.94894C18.3398 4.25906 13.5546 3.11832 11.4029 2.75918C11.1418 2.59105 10.7763 2.12852 11.4029 1.6235C12.0295 1.11847 12.1082 0.797376 12.0692 0.699956C11.8588 0.279103 10.8885 0.127162 10.4092 0.0102587C10.0257 -0.0832643 9.63372 0.485668 9.48565 0.781825C8.76552 1.99762 8.07591 2.60665 7.82112 2.75918Z" fill="#333333"/>
<path d="M1.90362 12.047L2.45371 13.8456C2.883 13.456 4.76687 12.3103 6.71823 11.3609C8.66958 10.4116 10.1411 10.6608 11.4419 10.8618C12.7958 11.0451 15.0602 12.8481 15.2333 13.0471C15.3718 13.2064 17.0045 14.1231 17.8035 14.5616C18.1427 14.077 18.4987 12.3346 18.6343 11.524C18.8655 11.6092 16.6932 10.9835 14.4542 9.62058C12.2151 8.25769 11.1551 8.28486 10.9929 8.27221C10.7665 8.25456 9.09105 8.13215 7.80105 8.92827C6.76905 9.56516 6.06876 9.64084 5.84762 9.59907C3.96053 9.06243 2.432 11.0074 1.90362 12.047Z" fill="#333333"/>
<path d="M3.34431 15.8917C3.32758 16.0757 4.07447 17.0138 4.45 17.4599C5.20607 16.6791 7.11203 14.9657 8.68723 14.359C10.6562 13.6006 11.4647 14.4507 11.9438 14.8349C12.2644 15.0918 14.1398 16.4328 14.3447 16.6639C14.8571 17.242 15.3613 17.4049 16.0183 17.6305L17.1187 15.9204C17.1187 15.9204 16.7656 15.4259 16.1224 15.2215C15.4792 15.0171 15.0727 14.8353 14.6948 14.5616C13.7455 13.874 12.6248 12.9629 12.1474 12.7761C9.33058 11.9155 8.59828 12.2935 8.23722 12.3997C7.37111 12.6544 3.36522 15.6616 3.34431 15.8917Z" fill="#333333"/>
<path d="M5.84762 19.0888C6.28786 19.6447 6.717 19.91 6.87655 19.9732L7.53982 19.531C7.95568 19.1731 8.95164 18.4003 9.6086 18.1729C10.4298 17.8886 11.4419 18.4572 12.3407 18.7888C13.0597 19.0541 13.7141 19.5521 13.9515 19.7679L15.1359 18.694C14.9211 18.3782 14.162 18.0255 13.8093 17.8886C13.5303 17.8465 12.6439 17.5426 11.33 16.6639C10.016 15.7852 9.02068 16.2978 8.68723 16.6639L5.84762 19.0888Z" fill="#333333"/>
<path d="M8.8277 21.341L10.2348 22L12.1474 21.0026C11.9907 20.8245 11.4673 20.4469 10.6266 20.3614C9.78593 20.2759 9.07705 20.9788 8.8277 21.341Z" fill="#333333"/>
<path d="M78.3398 12.4547C78.3398 17.5628 82.9387 20.5461 90.7281 20.5461C98.5176 20.5461 103.116 17.5628 103.116 12.4547C103.116 7.34659 98.5176 4.36328 90.7281 4.36328C82.9387 4.36328 78.3398 7.34659 78.3398 12.4547ZM98.9357 12.4547C98.9357 15.5024 96.0311 17.3267 90.7281 17.3267C85.4252 17.3267 82.5206 15.5024 82.5206 12.4547C82.5206 9.40701 85.4252 7.58268 90.7281 7.58268C96.0311 7.58268 98.9357 9.40701 98.9357 12.4547Z" fill="#333333"/>
<path d="M53.5625 12.4547C53.5625 17.5628 58.245 20.5461 66.1986 20.5461C69.5593 20.5461 72.3823 20.0096 75.5637 18.4428V14.9658L75.4517 14.9444C72.6287 16.4038 69.5817 17.3267 66.3555 17.3267C60.7095 17.3267 57.8194 15.5024 57.8194 12.4762C57.8194 9.40701 60.7767 7.58268 66.3555 7.58268C69.5817 7.58268 72.6287 8.48411 75.4517 9.96504L75.5861 9.94358V6.46662C72.6735 5.02862 69.6265 4.36328 65.9522 4.36328C58.2226 4.36328 53.5625 7.34659 53.5625 12.4547Z" fill="#333333"/>
<path d="M49.0651 20.5461H53.561L43.9301 4.36328H39.6105L29.4727 20.5461H33.9686L35.952 17.2961H47.1918L49.0651 20.5461ZM37.9355 14.0013L41.7262 7.79261L45.2965 14.0013H37.9355Z" fill="#333333"/>
<path d="M147.861 4.36328V16.1978L134.333 4.36328H129.977V20.5461H134.116V9.04779L147.208 20.5461H152V4.36328H147.861Z" fill="#333333"/>
<path d="M121.401 15.0323C124.838 14.4271 126.713 12.634 126.713 9.83228C126.713 6.29088 123.7 4.36328 118.299 4.36328H105.891V20.5461H110.131V15.2789H116.603L122.004 20.5461H127.159L127.226 20.4565L121.401 15.0323ZM110.131 7.72537H118.187C121.022 7.72537 122.472 8.17365 122.472 9.83228C122.472 11.4685 121.022 11.9168 118.187 11.9168H110.131V7.72537Z" fill="#333333"/>
</svg>
