<svg width="24" height="24" viewBox="0 0 24 24" fill="none" xmlns="http://www.w3.org/2000/svg">
<path d="M21 6.27927C20.3381 6.57995 19.627 6.78311 18.8794 6.87493C19.6508 6.40181 20.2278 5.65718 20.503 4.77997C19.7783 5.22122 18.9851 5.53181 18.158 5.69824C17.6018 5.08947 16.8651 4.68597 16.0623 4.55038C15.2594 4.41479 14.4354 4.5547 13.7181 4.94839C13.0007 5.34208 12.4303 5.96752 12.0953 6.72761C11.7602 7.4877 11.6794 8.33991 11.8652 9.15193C10.3968 9.07635 8.96033 8.68511 7.64898 8.0036C6.33762 7.32209 5.18071 6.36554 4.25332 5.19603C3.93623 5.75675 3.7539 6.40686 3.7539 7.09922C3.75354 7.72251 3.90328 8.33624 4.18981 8.88598C4.47634 9.43572 4.89082 9.90446 5.39646 10.2506C4.81005 10.2315 4.23658 10.0691 3.72377 9.77684V9.8256C3.72371 10.6998 4.0187 11.5471 4.55868 12.2237C5.09865 12.9003 5.85036 13.3646 6.68625 13.5377C6.14226 13.6886 5.57192 13.7109 5.01832 13.6027C5.25416 14.3549 5.71355 15.0127 6.33219 15.4839C6.95082 15.9551 7.69772 16.2163 8.46833 16.2308C7.16018 17.2835 5.54461 17.8545 3.88153 17.852C3.58693 17.8521 3.29258 17.8344 3 17.7992C4.68813 18.9118 6.65322 19.5023 8.66018 19.5C15.454 19.5 19.168 13.7319 19.168 8.72936C19.168 8.56683 19.164 8.40268 19.1569 8.24016C19.8793 7.70461 20.5029 7.04144 20.9984 6.28171L21 6.27927Z" fill="#4F4F4F"/>
</svg>
