<svg width="64" height="65" viewBox="0 0 64 65" fill="none" xmlns="http://www.w3.org/2000/svg">
<path d="M8.27335 56.2259C10.1347 58.0899 12.796 59.0739 15.972 59.0739C20.6173 59.0739 26.252 56.9992 32.004 53.4019C37.7534 57.0019 43.3907 59.0739 48.036 59.0739C51.2094 59.0739 53.8707 58.0899 55.7347 56.2259C59.1187 52.8419 59.4974 47.1245 56.804 40.1219C55.8494 37.6365 54.5267 35.0685 52.9187 32.4979C54.5294 29.9272 55.8494 27.3592 56.804 24.8739C59.4974 17.8712 59.116 12.1512 55.7347 8.76988C53.8734 6.90588 51.212 5.92188 48.036 5.92188C43.3907 5.92188 37.756 7.99654 32.004 11.5939C26.2547 7.99387 20.6173 5.92188 15.972 5.92188C12.7987 5.92188 10.1373 6.90588 8.27335 8.76988C4.88935 12.1539 4.50802 17.8712 7.20135 24.8739C8.15868 27.3592 9.47868 29.9272 11.0867 32.4979C9.47602 35.0685 8.15602 37.6365 7.20135 40.1219C4.50802 47.1245 4.88935 52.8419 8.27335 56.2259ZM51.8227 42.0365C53.66 46.8099 53.7107 50.7059 51.9614 52.4552C51.108 53.3085 49.788 53.7405 48.0334 53.7405C44.9214 53.7405 40.9774 52.3992 36.812 50.0605C39.1107 48.2845 41.3934 46.2952 43.596 44.0925C45.7827 41.9059 47.78 39.6205 49.5667 37.3032C50.4627 38.9059 51.228 40.4925 51.8227 42.0365ZM32.0014 46.9432C29.34 45.0365 26.684 42.8285 24.1774 40.3219C21.6574 37.7992 19.4227 35.1565 17.5107 32.4979C19.4227 29.8392 21.6574 27.1965 24.1774 24.6739C26.684 22.1699 29.34 19.9619 32.0014 18.0525C34.6627 19.9592 37.3187 22.1672 39.8254 24.6739C42.3454 27.1965 44.58 29.8392 46.492 32.4979C44.58 35.1565 42.3454 37.7992 39.8254 40.3219C37.3187 42.8259 34.6627 45.0339 32.0014 46.9432ZM48.0334 11.2552C49.7854 11.2552 51.1054 11.6872 51.9614 12.5405C53.7107 14.2899 53.6627 18.1859 51.8227 22.9592C51.228 24.5032 50.4627 26.0899 49.5667 27.6925C47.78 25.3752 45.7827 23.0899 43.596 20.9032C41.3934 18.7005 39.1107 16.7112 36.812 14.9352C40.9774 12.5992 44.9214 11.2552 48.0334 11.2552ZM12.18 22.9592C10.3427 18.1859 10.292 14.2899 12.0413 12.5405C12.8947 11.6872 14.2147 11.2552 15.9693 11.2552C19.0814 11.2552 23.0254 12.5965 27.1907 14.9352C24.892 16.7112 22.612 18.7005 20.4067 20.9032C18.22 23.0899 16.2227 25.3752 14.436 27.6925C13.54 26.0899 12.7747 24.5032 12.18 22.9592ZM12.18 42.0365C12.7747 40.4925 13.54 38.9059 14.436 37.3032C16.2227 39.6205 18.22 41.9059 20.4067 44.0925C22.6094 46.2952 24.892 48.2845 27.1907 50.0605C23.0227 52.3992 19.0814 53.7405 15.9693 53.7405C14.2173 53.7405 12.8973 53.3085 12.0413 52.4552C10.292 50.7059 10.3427 46.8099 12.18 42.0365Z" fill="#4F4F4F"/>
<path d="M32.0007 39.3628C35.7916 39.3628 38.8647 36.2896 38.8647 32.4988C38.8647 28.7079 35.7916 25.6348 32.0007 25.6348C28.2098 25.6348 25.1367 28.7079 25.1367 32.4988C25.1367 36.2896 28.2098 39.3628 32.0007 39.3628Z" fill="#4F4F4F"/>
</svg>
