<svg width="64" height="64" viewBox="0 0 64 64" fill="none" xmlns="http://www.w3.org/2000/svg">
<path d="M13.6601 56.0007C14.6681 57.0087 16.0067 57.5633 17.4307 57.5633C18.8547 57.5633 20.1934 57.0087 21.2014 56.0007L32.7641 44.438C34.6734 45.0273 36.6547 45.326 38.6761 45.326C44.0174 45.326 49.0414 43.2487 52.8147 39.4727C58.5374 33.7473 60.2467 25.2087 57.1667 17.718L55.6467 14.0167L44.3294 25.3313L38.6734 19.6727L49.9881 8.35798L46.2841 6.83532C43.8574 5.83798 41.2947 5.33398 38.6654 5.33398C33.3241 5.33398 28.3027 7.41398 24.5294 11.19C19.2361 16.4807 17.3774 24.182 19.5641 31.238L8.00141 42.8007C5.92141 44.878 5.92141 48.2647 8.00141 50.342L13.6601 56.0007ZM25.7881 32.558L25.1107 30.9153C22.8494 25.4193 24.1027 19.1553 28.3001 14.9607C31.0681 12.1927 34.7481 10.6673 38.6654 10.6673C39.1374 10.6673 39.6041 10.6887 40.0681 10.734L31.1267 19.6753L44.3241 32.8753L53.2707 23.9287C53.6867 28.2167 52.1961 32.5447 49.0387 35.7047C44.9054 39.838 38.4681 41.11 33.0814 38.894L31.4414 38.214L17.4307 52.23H17.4334L17.4307 54.8967V52.23L11.7721 46.5713L25.7881 32.558Z" fill="#4F4F4F"/>
</svg>
