<svg width="64" height="64" viewBox="0 0 64 64" fill="none" xmlns="http://www.w3.org/2000/svg">
<path d="M31.9987 42.6673C37.8814 42.6673 42.6654 37.8833 42.6654 32.0007C42.6654 26.118 37.8814 21.334 31.9987 21.334C26.116 21.334 21.332 26.118 21.332 32.0007C21.332 37.8833 26.116 42.6673 31.9987 42.6673ZM31.9987 26.6673C34.8894 26.6673 37.332 29.11 37.332 32.0007C37.332 34.8913 34.8894 37.334 31.9987 37.334C29.108 37.334 26.6654 34.8913 26.6654 32.0007C26.6654 29.11 29.108 26.6673 31.9987 26.6673Z" fill="#4F4F4F"/>
<path d="M7.58597 43.03L10.2526 47.6433C11.6686 50.0887 15.0766 51.006 17.5326 49.59L18.9433 48.774C20.4953 49.9927 22.1993 50.9927 23.9993 51.7393V53.334C23.9993 56.2753 26.3913 58.6673 29.3326 58.6673H34.666C37.6073 58.6673 39.9993 56.2753 39.9993 53.334V51.7393C41.7993 50.9927 43.5033 49.9927 45.0553 48.7767L46.466 49.5927C48.9273 51.006 52.3273 50.094 53.7486 47.6433L56.4126 43.0326C57.8846 40.486 57.01 37.2167 54.4633 35.7473L53.1166 34.9687C53.2606 33.9793 53.3326 32.99 53.3326 32.0007C53.3326 31.0113 53.2606 30.0193 53.1166 29.038L54.4633 28.2593C57.01 26.7873 57.8846 23.5207 56.4126 20.974L53.7486 16.3633C52.3326 13.91 48.9273 12.99 46.466 14.4113L45.0553 15.2273C43.5033 14.0087 41.7993 13.0087 39.9993 12.262V10.6673C39.9993 7.72598 37.6073 5.33398 34.666 5.33398H29.3326C26.3913 5.33398 23.9993 7.72598 23.9993 10.6673V12.262C22.1993 13.0087 20.4953 14.0087 18.9433 15.2247L17.5326 14.4087C15.0686 12.9927 11.666 13.91 10.25 16.3607L7.58597 20.9713C6.11397 23.518 6.98863 26.7873 9.5353 28.2567L10.882 29.0353C10.738 30.0193 10.666 31.0113 10.666 32.0007C10.666 32.99 10.738 33.9793 10.882 34.9633L9.5353 35.742C6.98863 37.214 6.11397 40.4833 7.58597 43.03ZM16.4553 35.6753C16.154 34.4673 15.9993 33.23 15.9993 32.0007C15.9993 30.7687 16.154 29.5313 16.4526 28.326C16.7406 27.1713 16.2313 25.966 15.1993 25.3713L12.2046 23.638L14.866 19.0273L17.9193 20.7927C18.9433 21.382 20.2313 21.2327 21.0873 20.414C22.9086 18.6887 25.106 17.398 27.4446 16.6833C28.5673 16.342 29.3326 15.3047 29.3326 14.134V10.6673H34.666V14.134C34.666 15.3047 35.4313 16.342 36.554 16.6833C38.8926 17.4007 41.09 18.6887 42.9113 20.414C43.7673 21.2327 45.0606 21.3793 46.0793 20.7927L49.13 19.03L51.7966 23.6407L48.7993 25.3713C47.7673 25.9687 47.258 27.174 47.546 28.326C47.8446 29.5313 47.9993 30.7687 47.9993 32.0007C47.9993 33.23 47.8446 34.4673 47.5433 35.6753C47.258 36.83 47.7673 38.0353 48.7993 38.63L51.794 40.3607L49.1326 44.9713L46.0793 43.2086C45.058 42.6193 43.7673 42.766 42.9113 43.5873C41.09 45.3127 38.8926 46.6033 36.554 47.318C35.4313 47.6593 34.666 48.6967 34.666 49.8673L34.6713 53.334H29.3326V49.8673C29.3326 48.6967 28.5673 47.6593 27.4446 47.318C25.106 46.6007 22.9086 45.3127 21.0873 43.5873C20.5806 43.102 19.9193 42.854 19.2526 42.854C18.794 42.854 18.3353 42.9713 17.9193 43.2113L14.8686 44.9767L12.202 40.366L15.1993 38.63C16.2313 38.0353 16.7406 36.83 16.4553 35.6753Z" fill="#4F4F4F"/>
</svg>
