<svg width="64" height="64" viewBox="0 0 64 64" fill="none" xmlns="http://www.w3.org/2000/svg">
<path d="M31.9987 5.33398C17.2947 5.33398 5.33203 17.2967 5.33203 32.0007C5.33203 46.7047 17.2947 58.6673 31.9987 58.6673C46.7027 58.6673 58.6654 46.7047 58.6654 32.0007C58.6654 17.2967 46.7027 5.33398 31.9987 5.33398ZM31.9987 53.334C20.236 53.334 10.6654 43.7633 10.6654 32.0007C10.6654 20.238 20.236 10.6673 31.9987 10.6673C43.7614 10.6673 53.332 20.238 53.332 32.0007C53.332 43.7633 43.7614 53.334 31.9987 53.334Z" fill="#4F4F4F"/>
<path d="M31.9987 29.3326C26.6654 29.3326 26.6654 27.6633 26.6654 26.6659C26.6654 25.3753 28.5347 23.9993 31.9987 23.9993C35.1587 23.9993 35.6947 25.7006 35.732 26.7139L38.3987 26.6659H41.0654C41.0654 23.9299 39.2894 20.0819 34.6654 18.9886V16.0312H29.332V18.8926C24.076 19.7752 21.332 23.2313 21.332 26.6659C21.332 29.6526 22.7187 34.6659 31.9987 34.6659C37.332 34.6659 37.332 36.4686 37.332 37.3326C37.332 38.4393 35.6787 39.9993 31.9987 39.9993C27.0894 39.9993 26.6947 37.7139 26.6654 37.3326H21.332C21.332 39.7806 23.0947 44.1406 29.332 45.1193V47.9993H34.6654V45.1059C39.9214 44.2233 42.6654 40.7673 42.6654 37.3326C42.6654 34.3459 41.2787 29.3326 31.9987 29.3326Z" fill="#4F4F4F"/>
</svg>
