<svg width="64" height="65" viewBox="0 0 64 65" fill="none" xmlns="http://www.w3.org/2000/svg">
<path d="M21.332 32.5C27.412 32.5 31.9987 27.9133 31.9987 21.8333C31.9987 15.7533 27.412 11.1666 21.332 11.1666C15.252 11.1666 10.6654 15.7533 10.6654 21.8333C10.6654 27.9133 15.252 32.5 21.332 32.5ZM21.332 16.5C24.4734 16.5 26.6654 18.692 26.6654 21.8333C26.6654 24.9746 24.4734 27.1666 21.332 27.1666C18.1907 27.1666 15.9987 24.9746 15.9987 21.8333C15.9987 18.692 18.1907 16.5 21.332 16.5ZM23.9987 35.1666H18.6654C11.3134 35.1666 5.33203 41.148 5.33203 48.5V51.1666H10.6654V48.5C10.6654 44.0893 14.2547 40.5 18.6654 40.5H23.9987C28.4094 40.5 31.9987 44.0893 31.9987 48.5V51.1666H37.332V48.5C37.332 41.148 31.3507 35.1666 23.9987 35.1666ZM48.9694 7.5293L45.1987 11.3C48.7214 14.828 50.6654 19.516 50.6654 24.5C50.6654 29.484 48.7214 34.172 45.1987 37.7L48.9694 41.4706C53.5027 36.9346 55.9987 30.908 55.9987 24.5C55.9987 18.092 53.5027 12.0653 48.9694 7.5293Z" fill="#4F4F4F"/>
<path d="M41.4269 15.0703L37.6562 18.8463C39.1682 20.353 40.0002 22.361 40.0002 24.4996C40.0002 26.6383 39.1682 28.6463 37.6562 30.153L41.4269 33.929C43.9442 31.4116 45.3336 28.065 45.3336 24.4996C45.3336 20.9343 43.9442 17.5876 41.4269 15.0703Z" fill="#4F4F4F"/>
</svg>
