<svg width="64" height="65" viewBox="0 0 64 65" fill="none" xmlns="http://www.w3.org/2000/svg">
<path d="M50.6667 5.83398H24C21.0587 5.83398 18.6667 8.22598 18.6667 11.1673V27.1673H13.3333C10.392 27.1673 8 29.5593 8 32.5007V56.5007C8 57.9727 9.192 59.1673 10.6667 59.1673H32H53.3333C54.808 59.1673 56 57.9727 56 56.5007V11.1673C56 8.22598 53.608 5.83398 50.6667 5.83398ZM13.3333 32.5007H21.3333H29.3333V37.834V43.1673V53.834H13.3333V32.5007ZM50.6667 53.834H34.6667V43.1673V37.834V32.5007C34.6667 29.5593 32.2747 27.1673 29.3333 27.1673H24V11.1673H50.6667V53.834Z" fill="#F2F2F2"/>
<path d="M29.3346 16.5H34.668V21.8333H29.3346V16.5ZM40.0013 16.5H45.3346V21.8333H40.0013V16.5ZM40.0013 27.2493H45.3346V32.5H40.0013V27.2493ZM40.0013 37.8333H45.3346V43.1667H40.0013V37.8333ZM18.668 37.836H24.0013V43.1693H18.668V37.836Z" fill="#F2F2F2"/>
</svg>
