<svg width="85" height="417" viewBox="0 0 85 417" fill="none" xmlns="http://www.w3.org/2000/svg">
<path d="M13.9453 14.4039L54.2657 14.4039L13.9453 60.6846L13.9453 75.5898L69.0804 75.5898L69.0804 61.4299L29.9055 61.4299L69.0804 16.6397L69.0804 0.243925L13.9453 0.243927L13.9453 14.4039Z" fill="#4F4F4F"/>
<path d="M50.2948 104.934C48.233 93.1762 42.1238 86.7627 32.5782 86.7627C20.5127 86.7627 13.9453 97.0701 13.9453 115.547L13.9453 157.998L69.0804 157.998L69.0804 143.491L51.1348 143.491L51.1348 121.35L69.0804 102.873L69.0804 85.2357L68.775 85.0067L50.2948 104.934ZM25.4 143.491L25.4 115.929C25.4 106.232 26.9273 101.269 32.5782 101.269C38.1528 101.269 39.6801 106.232 39.6801 115.929L39.6801 143.491L25.4 143.491Z" fill="#4F4F4F"/>
<path d="M41.5129 249.826C58.9163 249.826 69.0804 234.093 69.0804 207.444C69.0804 180.795 58.9163 165.062 41.5129 165.062C24.1095 165.062 13.9453 180.795 13.9453 207.444C13.9453 234.093 24.1095 249.826 41.5129 249.826ZM41.5129 179.365C51.8964 179.365 58.1119 189.302 58.1119 207.444C58.1119 225.586 51.8964 235.523 41.5129 235.523C31.1293 235.523 24.9138 225.586 24.9138 207.444C24.9138 189.302 31.1293 179.365 41.5129 179.365Z" fill="#4F4F4F"/>
<path d="M41.5129 334.59C58.9163 334.59 69.0804 318.57 69.0804 291.36C69.0804 279.862 67.2524 270.205 61.9143 259.321L50.0683 259.321L49.9952 259.704C54.9676 269.362 58.1119 279.786 58.1119 290.823C58.1119 310.139 51.8964 320.027 41.586 320.027C31.1293 320.027 24.9138 309.909 24.9138 290.823C24.9138 279.786 27.985 269.362 33.0305 259.704L32.9574 259.244L21.1114 259.244C16.2121 269.208 13.9453 279.633 13.9453 292.203C13.9453 318.647 24.1095 334.59 41.5129 334.59Z" fill="#4F4F4F"/>
<path d="M69.0804 349.972L69.0804 334.59L13.9453 367.539L13.9453 382.317L69.0804 417L69.0804 401.619L58.0076 394.833L58.0076 356.38L69.0804 349.972ZM46.782 388.047L25.6291 375.079L46.782 362.865L46.782 388.047Z" fill="#4F4F4F"/>
</svg>
