<svg width="316" height="190" viewBox="0 0 316 190" fill="none" xmlns="http://www.w3.org/2000/svg">
<path d="M7.92349 98.9231L303.83 99.8201" stroke="url(#paint0_linear_433_1978)" stroke-miterlimit="10"/>
<path d="M38.5199 117.324C47.0461 126.132 61.1809 126.279 70.0908 117.651C79.0008 109.023 79.3119 94.8882 70.7857 86.0798C62.2595 77.2715 48.1247 77.125 39.2148 85.7528C30.3048 94.3806 29.9937 108.515 38.5199 117.324Z" stroke="#4E4E4E" stroke-miterlimit="10"/>
<path d="M55.1308 121.519C65.958 132.705 83.9075 132.891 95.2221 121.934C106.537 110.978 106.932 93.0287 96.1044 81.8431C85.2772 70.6575 67.3278 70.4716 56.0132 81.4278C44.6986 92.3841 44.3035 110.334 55.1308 121.519Z" stroke="#5E5E5E" stroke-miterlimit="10"/>
<path d="M71.7014 125.751C84.85 139.335 106.648 139.561 120.388 126.255C134.129 112.95 134.609 91.1522 121.46 77.5684C108.311 63.9845 86.5135 63.7588 72.773 77.0641C59.0325 90.3694 58.5527 112.167 71.7014 125.751Z" stroke="#707070" stroke-miterlimit="10"/>
<path d="M88.3513 129.987C103.801 145.948 129.414 146.214 145.559 130.58C161.704 114.946 162.267 89.3335 146.818 73.3725C131.368 57.4116 105.756 57.1463 89.6105 72.78C73.4655 88.4138 72.9017 114.026 88.3513 129.987Z" stroke="#848484" stroke-miterlimit="10"/>
<path d="M104.918 134.22C122.689 152.58 152.15 152.885 170.721 134.902C189.293 116.919 189.941 87.4576 172.17 69.0982C154.399 50.7387 124.937 50.4336 106.366 68.4166C87.795 86.3996 87.1465 115.861 104.918 134.22Z" stroke="#9B9B9B" stroke-miterlimit="10"/>
<path d="M121.568 138.454C141.64 159.191 174.916 159.536 195.892 139.224C216.867 118.913 217.6 85.6369 197.528 64.9004C177.455 44.1638 144.179 43.8191 123.204 64.1305C102.228 84.4419 101.496 117.718 121.568 138.454Z" stroke="#B3B3B3" stroke-miterlimit="10"/>
<path d="M138.138 142.689C160.532 165.824 197.657 166.208 221.058 143.548C244.46 120.887 245.277 83.7626 222.883 60.6277C200.49 37.4928 163.365 37.1083 139.963 59.7689C116.561 82.4295 115.744 119.554 138.138 142.689Z" stroke="#CECECE" stroke-miterlimit="10"/>
<path d="M154.749 146.884C179.444 172.396 220.383 172.82 246.189 147.831C271.996 122.842 272.897 81.9031 248.202 56.391C223.507 30.8789 182.568 30.4549 156.762 55.4439C130.955 80.433 130.054 121.372 154.749 146.884Z" stroke="#F3F3F3" stroke-miterlimit="10"/>
<defs>
<linearGradient id="paint0_linear_433_1978" x1="285.523" y1="100.262" x2="17.9015" y2="99.3664" gradientUnits="userSpaceOnUse">
<stop stop-color="white"/>
<stop offset="1" stop-color="#3C3C3C" stop-opacity="0.46"/>
</linearGradient>
</defs>
</svg>
