<svg width="117" height="24" viewBox="0 0 117 24" fill="none" xmlns="http://www.w3.org/2000/svg">
<path d="M112.96 3.9375V15.3221L99.975 3.9375H95.793V19.5051H99.7659V8.4439L112.333 19.5051H116.933V3.9375H112.96Z" fill="#333333"/>
<path d="M87.5564 14.2009C90.8554 13.6187 92.6548 11.8938 92.6548 9.19856C92.6548 5.79181 89.7629 3.9375 84.5787 3.9375H72.668V19.5051H76.7382V14.4381H82.9506L88.1348 19.5051H93.0833L93.1476 19.4188L87.5564 14.2009ZM76.7382 7.17176H84.4716C87.1922 7.17176 88.5846 7.60299 88.5846 9.19856C88.5846 10.7726 87.1922 11.2038 84.4716 11.2038H76.7382V7.17176Z" fill="#333333"/>
<path d="M46.9062 11.7213C46.9062 16.6352 51.3206 19.5051 58.7976 19.5051C66.2746 19.5051 70.689 16.6352 70.689 11.7213C70.689 6.80738 66.2746 3.9375 58.7976 3.9375C51.3206 3.9375 46.9062 6.80738 46.9062 11.7213ZM66.6759 11.7213C66.6759 14.6531 63.8879 16.4081 58.7976 16.4081C53.7074 16.4081 50.9193 14.6531 50.9193 11.7213C50.9193 8.78946 53.7074 7.0345 58.7976 7.0345C63.8879 7.0345 66.6759 8.78946 66.6759 11.7213Z" fill="#333333"/>
<path d="M23.1211 11.7213C23.1211 16.6352 27.6158 19.5051 35.2504 19.5051C38.4763 19.5051 41.186 18.9889 44.2398 17.4817V14.1369L44.1323 14.1163C41.4226 15.5203 38.4978 16.4081 35.4009 16.4081C29.9815 16.4081 27.2072 14.6531 27.2072 11.7419C27.2072 8.78946 30.046 7.0345 35.4009 7.0345C38.4978 7.0345 41.4226 7.90165 44.1323 9.32627L44.2613 9.30563V5.96087C41.4656 4.57755 38.5408 3.9375 35.0138 3.9375C27.5943 3.9375 23.1211 6.80738 23.1211 11.7213Z" fill="#333333"/>
<path d="M18.8066 19.5051H23.1221L13.8775 3.9375H9.73118L0 19.5051H4.31556L6.21949 16.3786H17.0084L18.8066 19.5051ZM8.12342 13.209L11.762 7.23645L15.1891 13.209H8.12342Z" fill="#333333"/>
</svg>
