<svg width="1212" height="700" viewBox="0 0 1212 700" fill="none" xmlns="http://www.w3.org/2000/svg">
<path d="M576.095 420.874L576.095 420.874L576.094 420.865C575.883 419.066 576.094 417.568 576.594 416.307C577.094 415.047 577.907 413.959 578.993 413.005C581.198 411.07 584.469 409.738 588.23 408.787C591.968 407.842 596.059 407.302 599.82 406.867C600.453 406.794 601.078 406.724 601.691 406.655C604.685 406.318 607.397 406.013 609.344 405.566L609.344 405.566L609.352 405.564C616.204 403.924 622.619 404.401 629.077 404.881C629.269 404.895 629.461 404.909 629.653 404.923C636.265 405.413 642.942 405.84 649.946 403.736L649.946 403.736L649.956 403.733C655.87 401.879 662.385 402.335 667.684 404.727C668.725 405.377 669.82 406.084 670.412 407.07C671.123 408.383 670.814 409.959 669.804 411.516C668.783 413.088 667.122 414.493 665.468 415.221C663.752 415.891 661.921 416.208 659.969 416.495C659.719 416.531 659.466 416.568 659.211 416.604C657.508 416.849 655.721 417.105 653.966 417.6L653.962 417.601C648.663 419.121 643.94 422.99 639.479 426.643C638.935 427.089 638.394 427.532 637.857 427.966C632.82 432.044 628.06 435.458 622.722 435.438L622.715 435.438L622.709 435.438C619.136 435.48 616.115 433.971 613.038 432.167C612.609 431.915 612.177 431.657 611.743 431.397C609.118 429.826 606.384 428.189 603.302 427.51L603.301 427.51C600.659 426.931 597.907 427.051 595.192 427.295C594.501 427.357 593.816 427.427 593.135 427.497C591.103 427.703 589.108 427.907 587.118 427.893L587.105 427.893L587.093 427.893C584.492 427.96 581.84 427.401 579.788 426.208C577.74 425.017 576.35 423.235 576.095 420.874Z" stroke="#4F4F4F" stroke-width="2" stroke-miterlimit="10"/>
<path d="M651.902 431.231L651.894 431.238C650.631 432.41 649.348 433.663 648.027 434.954C645.773 437.156 643.409 439.465 640.856 441.652C636.849 445.085 632.549 448.052 627.914 449.476C623.572 450.789 619.626 450.538 615.683 449.563C612.43 448.728 609.489 447.213 606.53 445.4C605.178 444.572 603.832 443.687 602.45 442.78C602.318 442.693 602.186 442.606 602.053 442.519C600.537 441.524 598.978 440.508 597.344 439.528C594.466 437.72 591.509 436.247 588.17 435.534C584.444 434.577 580.512 434.516 576.442 434.735C574.587 434.835 572.691 434.994 570.771 435.154C570.582 435.17 570.393 435.186 570.204 435.202C568.085 435.378 565.933 435.552 563.74 435.649L563.735 435.649C551.26 436.283 543.02 429.973 542.364 420.9C542.138 417.788 542.432 414.838 543.23 412.044C545.948 403.612 552.255 393.735 563.359 390.775C565.819 390.121 568.881 390.621 572.161 391.273C572.448 391.33 572.737 391.388 573.027 391.447C575.939 392.034 578.972 392.646 581.532 392.306L581.532 392.306L581.54 392.305C584.785 391.841 587.915 391.342 590.933 390.861C596.537 389.967 601.756 389.135 606.61 388.704L606.61 388.704L606.621 388.703C613.155 388.035 619.532 386.685 625.783 385.361C626.498 385.21 627.21 385.059 627.921 384.909C634.874 383.447 641.682 382.118 648.509 381.852C651.681 381.733 654.787 382.565 658.012 383.484C658.174 383.53 658.337 383.576 658.5 383.623C661.522 384.486 664.655 385.381 667.886 385.441C669.045 385.554 669.958 385.493 671.16 385.223L671.17 385.221L671.179 385.219C680.834 382.835 690.113 384.342 697.248 388.452L697.257 388.457L697.266 388.462C699.273 389.54 700.928 390.953 701.994 393.046L702.084 393.222L702.192 393.29L702.206 393.324C703.395 396.318 702.638 399.949 700.743 403.289C698.846 406.633 695.883 409.538 692.919 410.987L692.907 410.993L692.895 410.999C690.275 412.365 687.502 413.028 684.615 413.549C683.893 413.68 683.16 413.802 682.421 413.925C680.249 414.287 678.024 414.658 675.87 415.276C674.16 415.749 672.693 416.214 671.196 416.872C664.356 419.786 658.882 424.82 653.743 429.544C653.125 430.112 652.512 430.676 651.902 431.231Z" stroke="#4F4F4F" stroke-width="2" stroke-miterlimit="10"/>
<path d="M626.588 465.213L626.58 465.215C619.693 466.92 613.883 465.737 608.61 463.759C604.418 462.167 600.693 459.821 596.988 457.192C595.665 456.253 594.337 455.272 592.99 454.277C590.596 452.51 588.144 450.699 585.56 449.005C581.86 446.474 577.808 444.713 573.711 443.514L573.703 443.512L573.696 443.51C568.727 442.171 563.45 442.027 557.947 442.287C555.196 442.417 552.376 442.65 549.507 442.888L549.34 442.902C546.52 443.136 543.651 443.374 540.726 443.529C520.388 444.555 509.4 434.392 508.613 420.984C508.555 416.09 508.783 411.308 510.299 406.831L510.302 406.822L510.304 406.813C514.352 394.154 522.388 376.665 539.217 371.99C540.882 371.55 542.894 371.65 545.163 372.092C547.422 372.531 549.845 373.29 552.316 374.091C552.577 374.176 552.84 374.262 553.102 374.347C555.303 375.063 557.528 375.788 559.641 376.297C561.997 376.864 564.299 377.187 566.351 376.9L566.357 376.899C570.904 376.229 575.288 375.474 579.557 374.738C588.328 373.228 596.615 371.8 604.835 371.362C614.717 370.873 624.415 367.857 633.971 364.793C634.341 364.674 634.712 364.555 635.082 364.437C644.291 361.48 653.368 358.567 662.538 357.768L662.541 357.768C666.345 357.423 670.216 359.133 674.254 361.24C674.853 361.552 675.455 361.873 676.061 362.196C679.452 364.003 682.94 365.862 686.403 366.506C687.821 366.79 689.307 366.892 690.861 366.586L690.882 366.582L690.903 366.576C704.89 363.113 717.722 365.822 727.243 371.635C730.055 373.409 732.478 375.514 733.98 378.866L734.181 379.316L734.257 379.311C735.925 383.85 734.804 389.388 732.105 394.434C729.377 399.536 725.115 403.98 720.812 406.177L720.803 406.181L720.794 406.185C716.827 408.306 712.748 409.301 708.524 410.111C707.636 410.281 706.739 410.443 705.835 410.607C702.477 411.215 699.026 411.839 695.582 412.95L695.575 412.952L695.568 412.955C693.538 413.645 691.181 414.549 689.072 415.631C679.149 420.657 671.235 428.564 664.16 435.634C663.394 436.399 662.638 437.155 661.891 437.896L661.885 437.901C660.334 439.46 658.725 441.169 657.044 442.954C653.778 446.423 650.24 450.181 646.33 453.685C640.446 458.956 633.893 463.477 626.588 465.213Z" stroke="#4F4F4F" stroke-width="2" stroke-miterlimit="10"/>
<path d="M476.549 401.831C474.505 408.216 473.827 414.874 474.271 421.453C475.192 439.751 489.264 454.745 517.639 452.399C519.659 452.234 521.648 452.059 523.605 451.887C536.608 450.741 548.208 449.718 558.561 452.667C563.703 454.145 568.49 456.382 573.163 459.728M476.549 401.831L477.369 401.987C477.369 401.987 477.369 401.987 477.369 401.986M476.549 401.831L477.369 401.986C477.369 401.986 477.369 401.986 477.369 401.986M476.549 401.831C481.854 385.302 491.749 359.273 514.965 352.88C520.092 351.46 527.11 354.176 534.051 356.862C540.305 359.283 546.497 361.679 551.187 361.004C557.463 360.072 563.504 358.97 569.407 357.894C581.064 355.768 592.182 353.74 603.506 353.316C616.821 352.879 629.963 347.877 643.062 342.891C654.436 338.562 665.778 334.245 677.174 332.938L573.163 459.728M477.369 401.986C475.372 408.227 474.702 414.754 475.139 421.23L475.14 421.238L475.14 421.246C476.035 439.015 489.693 453.793 517.722 451.476L517.723 451.476C519.734 451.312 521.717 451.137 523.672 450.964C536.66 449.818 548.42 448.78 558.917 451.77L558.918 451.77C564.13 453.268 568.984 455.536 573.718 458.924M477.369 401.986C480.017 393.738 483.78 383.219 489.732 373.982C495.67 364.765 503.746 356.885 515.041 353.774L515.042 353.774C517.267 353.157 519.973 353.378 523.017 354.115C526.045 354.849 529.3 356.066 532.604 357.341C532.948 357.473 533.291 357.607 533.636 357.74C536.586 358.882 539.557 360.032 542.363 360.852C545.484 361.764 548.504 362.302 551.154 361.921L551.158 361.92C557.498 360.979 563.57 359.872 569.486 358.792C581.102 356.673 592.117 354.663 603.383 354.241C615.98 353.827 628.398 349.38 640.632 344.742C641.49 344.417 642.346 344.092 643.201 343.766C654.598 339.429 665.834 335.153 677.114 333.859C679.395 333.616 681.695 334.135 684.04 335.147C686.386 336.159 688.728 337.642 691.096 339.273C691.937 339.852 692.785 340.453 693.636 341.056C695.159 342.135 696.692 343.222 698.211 344.203C700.59 345.74 703.012 347.074 705.471 347.81L705.497 347.817L705.523 347.823L705.637 347.848C707.453 348.246 709.517 348.699 711.44 348.16C729.484 343.645 745.599 347.409 757.758 355.092C761.347 357.36 764.755 360.284 766.422 364.832C766.445 364.975 766.49 365.083 766.522 365.148C766.565 365.236 766.617 365.313 766.647 365.356L766.676 365.446C768.694 371.692 767.085 379.275 763.494 386.139C759.902 393.006 754.406 398.996 748.879 402.027L748.873 402.03C743.554 404.993 738.107 406.324 732.513 407.401C731.432 407.609 730.343 407.808 729.249 408.007C724.72 408.834 720.092 409.679 715.49 411.276L715.474 411.281L715.458 411.287L715.422 411.301C712.552 412.41 709.605 413.549 706.891 415.049C694.623 421.381 685.173 431.207 676.62 440.102C674.997 441.789 673.406 443.443 671.835 445.033L671.835 445.033C669.819 447.074 667.703 449.354 665.473 451.757C661.237 456.32 656.589 461.328 651.426 465.993C643.59 473.073 634.764 479.163 624.893 481.286C616.022 483.156 608.059 481.035 601.47 478.041C596.353 475.681 591.855 472.502 587.407 469.102C586.333 468.281 585.26 467.446 584.182 466.607C580.815 463.986 577.396 461.324 573.718 458.924M573.718 458.924C573.714 458.921 573.71 458.919 573.706 458.916L573.163 459.728M573.718 458.924C573.722 458.927 573.726 458.93 573.73 458.933L573.163 459.728" stroke="#4F4F4F" stroke-width="2" stroke-miterlimit="10"/>
<path d="M623.52 497.097L623.518 497.097C612.08 499.349 602.244 496.259 594.348 492.246C588.313 489.114 583.046 485.1 577.796 480.865C576.858 480.109 575.921 479.345 574.979 478.579C570.663 475.063 566.265 471.482 561.411 468.247C555.626 464.19 549.974 461.415 543.649 459.619L543.648 459.619C530.381 455.876 515.383 457.254 498.22 458.83C496.91 458.95 495.587 459.072 494.252 459.192L494.251 459.192C476.365 460.821 463.285 456.856 454.559 449.736C445.835 442.617 441.417 432.309 440.919 421.136C440.652 412.912 441.229 404.713 443.957 396.761L443.96 396.751L443.961 396.748C447.396 386.437 451.902 372.913 459.135 360.976C466.354 349.063 476.231 338.826 490.408 334.942C493.199 334.19 496.602 334.57 500.418 335.632C504.216 336.689 508.303 338.385 512.44 340.147C512.82 340.309 513.201 340.471 513.582 340.634C517.326 342.232 521.088 343.839 524.63 344.988C528.515 346.249 532.246 347 535.485 346.526C543.479 345.384 551.214 343.923 558.808 342.49C562.138 341.861 565.441 341.237 568.728 340.648C579.526 338.711 590.181 337.133 601.173 336.907C616.464 336.666 631.525 330.793 646.403 324.557C647.679 324.022 648.953 323.485 650.225 322.948C663.851 317.203 677.33 311.52 690.922 309.724L690.924 309.724C693.611 309.363 696.315 310.056 699.07 311.436C701.824 312.816 704.568 314.851 707.332 317.093C708.368 317.932 709.412 318.806 710.459 319.682C712.181 321.123 713.911 322.57 715.625 323.885C718.392 326.008 721.207 327.859 724.067 328.9L724.083 328.906L724.1 328.911C726.552 329.665 728.631 330.142 731.149 329.558L731.156 329.557L731.164 329.555C753.563 323.959 773.246 328.768 787.754 338.336L787.759 338.339L787.765 338.343C792.136 341.107 796.315 344.716 798.418 350.524C798.433 350.844 798.541 351.071 798.607 351.196C798.611 351.203 798.615 351.21 798.618 351.217L798.665 351.363C801.211 359.362 799.242 368.949 794.831 377.56C790.418 386.177 783.634 393.667 776.76 397.454L776.755 397.457C770.088 401.176 763.272 402.798 756.303 404.142C755.184 404.358 754.06 404.566 752.932 404.776C747.075 405.863 741.109 406.971 735.185 409.191C731.383 410.575 727.821 412.135 724.492 414.061C709.393 422.309 697.556 434.975 687.048 446.218C685.279 448.11 683.548 449.962 681.846 451.746C679.49 454.187 676.99 456.95 674.333 459.885C669.123 465.642 663.312 472.062 656.819 478.02C647.057 486.976 635.951 494.682 623.52 497.097Z" stroke="#4F4F4F" stroke-width="2" stroke-miterlimit="10"/>
<path d="M691.534 458.741L691.53 458.745C688.927 461.515 686.154 464.648 683.201 467.984C676.96 475.035 669.917 482.991 661.983 490.339C650.336 501.124 636.947 510.409 621.794 513.219C608.359 515.63 596.627 511.748 587.162 506.547C580.21 502.639 574.171 497.833 568.188 492.807C567.067 491.866 565.947 490.916 564.824 489.962C559.963 485.838 555.031 481.653 549.603 477.813C543.031 473.054 536.297 469.794 529.158 467.684L529.152 467.682C512.662 462.971 494.153 464.753 472.308 466.855L471.281 466.954L471.28 466.954C449.532 469.056 433.856 464.251 423.486 455.637C413.116 447.022 407.998 434.557 407.443 421.213C407.072 411.312 407.826 401.398 411.025 391.708L411.028 391.699C411.126 391.393 411.225 391.084 411.325 390.772C415.213 378.639 420.334 362.655 428.63 348.427C437.123 333.859 448.877 321.242 465.96 316.486C469.323 315.599 473.427 316.141 478.014 317.528C482.582 318.91 487.503 321.087 492.473 323.338C492.894 323.528 493.315 323.719 493.736 323.911C498.272 325.969 502.823 328.034 507.096 329.513C511.748 331.124 516.189 332.086 520.014 331.52L520.016 331.519C529.272 330.122 538.211 328.378 546.979 326.667C551.423 325.8 555.823 324.941 560.199 324.14C573.232 321.756 586.108 319.872 599.487 319.746L599.49 319.746C617.347 319.501 634.975 312.207 652.463 304.393C654.06 303.679 655.655 302.961 657.25 302.244C673.173 295.081 688.992 287.965 705.004 285.572L705.008 285.571C708.111 285.092 711.225 285.951 714.389 287.689C717.55 289.425 720.688 291.999 723.832 294.843C725.149 296.034 726.479 297.284 727.809 298.535C729.62 300.237 731.432 301.94 733.215 303.498C736.325 306.216 739.468 308.606 742.641 310.003C745.411 311.341 748.058 311.763 750.847 311.164L750.862 311.161L750.877 311.157C777.345 304.504 800.86 310.522 817.743 321.797C822.91 325.264 827.877 329.578 830.406 336.69C830.409 336.709 830.412 336.726 830.414 336.741C830.428 336.82 830.447 336.89 830.464 336.942C830.495 337.038 830.534 337.133 830.559 337.193L830.563 337.203C830.576 337.233 830.585 337.256 830.593 337.275L830.588 337.33L830.643 337.502C833.721 347.155 831.33 358.749 826.058 369.145C820.782 379.546 812.7 388.59 804.614 393.124C796.445 397.705 788.18 399.67 779.805 401.284C778.481 401.539 777.154 401.785 775.823 402.032C768.776 403.339 761.644 404.663 754.576 407.371C750.161 408.997 745.996 410.978 742.103 413.123L742.1 413.124C724.542 422.856 711.077 437.53 699.015 450.677C696.467 453.453 693.982 456.162 691.534 458.741Z" stroke="#4F4F4F" stroke-width="2" stroke-miterlimit="10"/>
<path d="M832.677 389.023L832.682 389.02C842.117 383.728 851.496 373.133 857.632 360.947C863.766 348.769 866.582 335.161 863.106 323.84L863.054 323.671L863.069 323.53C863.063 323.514 863.054 323.49 863.039 323.454L863.031 323.433C862.986 323.327 862.895 323.112 862.881 322.815C859.917 314.437 854.18 309.434 848.237 305.277C828.719 292.13 801.92 285.047 771.385 292.755C768.224 293.59 765.018 292.792 762.024 291.302C758.46 289.557 754.929 286.641 751.431 283.334C749.416 281.429 747.374 279.357 745.335 277.286C743.851 275.78 742.368 274.275 740.898 272.836C737.372 269.387 733.857 266.257 730.323 264.123C726.786 261.988 723.314 260.902 719.87 261.407C701.663 264.29 683.601 272.796 665.413 281.361C663.405 282.307 661.395 283.254 659.384 284.193C639.214 293.615 618.878 302.341 598.336 302.41L598.334 302.41C582.566 302.435 567.395 304.677 552.122 307.511C547.221 308.42 542.303 309.392 537.351 310.37C526.898 312.435 516.293 314.531 505.367 316.134C500.959 316.791 495.811 315.607 490.394 313.635C485.477 311.845 480.236 309.364 475.001 306.886C474.447 306.624 473.894 306.362 473.34 306.101C467.538 303.361 461.784 300.714 456.444 299.043C451.08 297.364 446.27 296.716 442.328 297.828L442.324 297.83C422.338 303.365 408.699 318.411 398.887 335.714C389.719 351.879 383.959 369.899 379.529 383.756C379.211 384.752 378.899 385.726 378.594 386.676C374.926 398.101 373.975 409.914 374.189 421.34C374.802 436.847 380.617 451.468 392.63 461.601C404.643 471.735 422.911 477.427 448.515 474.944C474.256 472.355 495.66 470.247 514.599 475.811C522.838 478.214 530.656 481.959 538.012 487.42C544.199 491.917 549.76 496.878 555.257 501.781C556.392 502.793 557.525 503.804 558.66 504.807C565.301 510.678 572.031 516.321 579.902 520.91C590.684 527.143 604.273 532.186 620.284 529.394C638.008 526.293 653.681 515.429 667.254 502.807C676.586 494.129 684.84 484.708 692.085 476.44C695.406 472.649 698.516 469.101 701.419 465.977C703.739 463.458 706.098 460.841 708.509 458.166C722.753 442.363 738.837 424.517 759.878 412.614C759.878 412.614 759.878 412.614 759.879 412.614L760.175 413.416C764.643 410.869 769.657 408.468 774.612 406.629L832.677 389.023ZM832.677 389.023C823.297 394.352 813.725 396.65 803.974 398.554C802.452 398.852 800.924 399.14 799.391 399.428C791.151 400.981 782.784 402.557 774.456 405.761L832.677 389.023Z" stroke="#4F4F4F" stroke-width="2" stroke-miterlimit="10"/>
<path d="M572.781 535.1L572.252 535.924C584.405 543.222 600.329 549.319 618.616 546.143C653.306 540.373 680.605 508.916 700.807 485.638C704.714 481.137 708.355 476.941 711.732 473.296C714.603 470.18 717.515 466.938 720.49 463.625C736.515 445.781 754.396 425.869 777.795 412.432M572.781 535.1C584.868 542.357 600.611 548.358 618.627 545.229L618.633 545.228C639.066 541.829 656.948 529.397 672.373 514.927C682.808 505.138 692.029 494.512 700.156 485.146C704.076 480.629 707.741 476.405 711.165 472.71M572.781 535.1C563.997 529.734 556.503 523.255 549.06 516.572C548.16 515.764 547.261 514.953 546.36 514.141C539.822 508.244 533.205 502.277 525.71 496.913C517.303 490.786 508.69 486.535 499.346 483.835C478.225 477.495 454.256 479.795 425.1 482.639L425.095 482.639C395.621 485.688 374.69 479.161 360.964 467.514C347.237 455.865 340.66 439.046 339.992 421.378L339.992 421.373C339.41 408.114 340.538 394.605 344.948 381.442L344.95 381.438C345.59 379.499 346.25 377.47 346.933 375.366C351.938 359.965 358.251 340.538 368.014 322.958C379.096 303.004 394.54 285.581 417.435 279.177L417.437 279.176C421.807 277.94 427.228 278.756 433.313 280.767C439.371 282.768 445.94 285.899 452.575 289.128C453.1 289.383 453.625 289.639 454.15 289.895C460.248 292.867 466.366 295.85 472.094 297.994C478.293 300.314 484.164 301.706 489.151 300.959C501.781 299.098 514.002 296.64 526.037 294.219C531.67 293.085 537.262 291.96 542.836 290.909C560.345 287.605 577.739 285.012 595.892 285.09L595.895 285.09C619.122 285.104 642.086 274.959 664.893 263.959C667.218 262.838 669.541 261.708 671.863 260.579C692.38 250.599 712.789 240.672 733.414 237.279M572.781 535.1L733.435 236.363M711.165 472.71C711.165 472.71 711.165 472.71 711.165 472.711L711.731 473.294L711.167 472.708C711.166 472.709 711.166 472.709 711.165 472.71ZM711.165 472.71C714.018 469.613 716.917 466.385 719.885 463.08C735.906 445.237 753.925 425.169 777.489 411.635M777.489 411.635C777.488 411.636 777.487 411.636 777.486 411.637L777.795 412.432M777.489 411.635C777.491 411.634 777.492 411.634 777.493 411.633L777.795 412.432M777.489 411.635C782.621 408.637 788.273 405.982 794.158 403.688C803.615 400.002 813.134 398.211 822.532 396.443C824.275 396.115 826.014 395.788 827.748 395.45C838.868 393.28 849.815 390.646 860.552 384.468L860.562 384.462C871.345 378.414 882.016 366.272 888.975 352.313C895.913 338.396 899.084 322.834 895.121 309.88M777.795 412.432C782.872 409.465 788.476 406.832 794.323 404.553C803.691 400.901 813.115 399.128 822.513 397.359C835.408 394.932 848.257 392.514 860.855 385.266C882.898 372.903 904.123 335.891 895.925 309.36M895.121 309.88C895.142 309.916 895.165 309.952 895.19 309.988L895.925 309.36M895.121 309.88C895.111 309.848 895.101 309.815 895.091 309.783L895.925 309.36M895.121 309.88C894.977 309.637 894.91 309.398 894.866 309.242L894.86 309.222C894.808 309.035 894.785 308.97 894.741 308.906L894.68 308.818L894.645 308.712C891.528 299.15 884.732 293.257 877.956 288.569M895.925 309.36C895.803 309.183 895.751 309.001 895.7 308.819C895.649 308.637 895.597 308.454 895.475 308.277C892.28 298.476 885.325 292.476 878.517 287.765M877.956 288.569C877.958 288.57 877.959 288.571 877.961 288.572L878.517 287.765M877.956 288.569C877.956 288.569 877.956 288.569 877.956 288.568L878.517 287.765M877.956 288.569C856.069 273.718 825.723 265.4 790.839 274.184L790.831 274.186L790.824 274.187C787.128 275.051 783.647 274.297 780.363 272.427M878.517 287.765C856.493 272.819 825.934 264.433 790.786 273.283C787.335 274.089 784.039 273.398 780.86 271.584M780.363 272.427C780.368 272.429 780.373 272.432 780.378 272.434L780.86 271.584M780.363 272.427C780.358 272.424 780.353 272.421 780.348 272.418L780.86 271.584M780.363 272.427C776.335 270.383 772.4 266.957 768.525 263.064C766.244 260.772 763.948 258.279 761.656 255.792C760.065 254.065 758.476 252.34 756.896 250.687C753.01 246.621 749.129 242.931 745.195 240.424C741.258 237.915 737.353 236.647 733.414 237.279M780.86 271.584C774.611 268.419 768.5 261.785 762.348 255.107C753.013 244.972 743.582 234.736 733.435 236.363M733.435 236.363L733.416 237.278C733.415 237.278 733.415 237.278 733.414 237.279M733.435 236.363L733.412 237.279C733.413 237.279 733.413 237.279 733.414 237.279" stroke="#4F4F4F" stroke-width="2" stroke-miterlimit="10"/>
<path d="M565.599 549.166L565.603 549.169C578.968 557.635 596.61 564.439 617.198 561.113C640.215 557.333 660.384 543.32 677.733 527.015C689.704 515.764 700.247 503.513 709.457 492.811C713.624 487.969 717.519 483.444 721.148 479.473C724.339 475.965 727.585 472.299 730.914 468.539C748.672 448.486 768.769 425.791 795.101 410.489L795.108 410.485C801.105 407.061 807.083 404.002 813.581 401.467C824.278 397.255 835.062 395.218 845.728 393.203C847.572 392.854 849.412 392.507 851.248 392.148C863.741 389.711 876.063 386.786 888.145 379.941C900.153 373.049 912.116 359.395 919.964 343.7C927.792 328.046 931.451 310.517 927.104 295.806C926.961 295.564 926.894 295.326 926.851 295.171L926.845 295.151C926.792 294.963 926.769 294.898 926.725 294.834L926.665 294.746L926.63 294.641C923.082 283.792 915.509 277.205 907.953 271.821C883.72 255.081 849.81 245.713 810.572 255.571C806.513 256.666 802.764 255.511 798.992 253.526L798.986 253.522C794.566 251.131 790.241 247.165 785.978 242.669C783.495 240.05 780.997 237.21 778.505 234.377C776.733 232.362 774.963 230.351 773.204 228.425C768.938 223.752 764.681 219.517 760.373 216.647C756.059 213.773 751.792 212.333 747.501 213.08L747.501 213.08C724.69 217.039 702.056 228.337 679.324 239.684C676.569 241.059 673.813 242.435 671.054 243.799C645.604 256.38 620.013 267.902 594.249 267.702L594.248 267.702C573.704 267.52 554.015 270.426 534.271 274.155C527.781 275.38 521.277 276.696 514.734 278.021C501.399 280.719 487.9 283.451 474.013 285.517M565.599 549.166L474.045 284.6M565.599 549.166C555.894 543.117 547.627 535.894 539.45 528.443C538.299 527.394 537.15 526.341 535.998 525.285C528.982 518.854 521.891 512.354 513.909 506.436L565.599 549.166ZM474.013 285.517C474.013 285.517 474.013 285.518 474.013 285.518L474.045 284.6M474.013 285.517C474.014 285.517 474.014 285.517 474.014 285.517L474.045 284.6M474.013 285.517C468.446 286.356 461.87 284.755 454.903 282.084C448.446 279.608 441.542 276.165 434.654 272.73C434.087 272.447 433.519 272.164 432.952 271.882C425.484 268.163 418.081 264.549 411.253 262.221C404.397 259.884 398.269 258.9 393.322 260.274M474.045 284.6C463.752 286.15 449.482 279.034 435.126 271.875C419.639 264.151 404.052 256.378 393.247 259.38M393.322 260.274L393.247 259.38M393.322 260.274C393.322 260.275 393.322 260.275 393.322 260.275L393.247 259.38M393.322 260.274L393.247 259.38M312.051 376.161C312.051 376.161 312.051 376.161 312.052 376.16L311.232 376.001L312.051 376.161Z" stroke="#4F4F4F" stroke-width="2" stroke-miterlimit="10"/>
<path d="M558.401 563.458L558.403 563.459C573.076 572.955 592.876 580.72 615.476 577.056L615.479 577.056C641.21 572.977 663.663 557.386 682.9 539.251C696.177 526.733 707.837 513.095 717.984 501.225C722.569 495.862 726.846 490.86 730.823 486.485L730.824 486.485C734.538 482.407 738.316 478.134 742.193 473.749C761.737 451.644 783.779 426.714 812.652 409.776L812.655 409.774C819.282 405.918 826.128 402.611 833.211 399.665L833.218 399.662L833.226 399.659C845.048 394.966 856.982 392.714 868.803 390.484C870.86 390.095 872.914 389.708 874.963 389.308C888.827 386.604 902.526 383.342 915.968 375.646C929.328 367.997 942.585 352.792 951.255 335.343C959.905 317.934 963.911 298.45 959.019 282.18C958.861 281.899 958.8 281.59 958.763 281.408L958.756 281.372C958.703 281.111 958.68 281.051 958.66 281.022L958.6 280.934L958.566 280.83C954.585 268.692 946.248 261.221 937.908 255.339C911.041 236.725 873.562 226.308 830.536 237.202C826.208 238.313 821.895 237.217 817.835 234.849C817.834 234.848 817.834 234.848 817.833 234.848L818.351 234.017C810.92 229.781 803.675 221.215 796.397 212.608C785.223 199.396 773.97 186.09 761.838 188.21L558.401 563.458ZM558.401 563.458C547.785 556.631 538.755 548.572 529.844 540.352C528.862 539.446 527.881 538.538 526.9 537.63C518.989 530.306 511.041 522.947 502.063 516.365M558.401 563.458L501.482 517.154M458.557 270.534C474.151 268.21 489.238 265.116 504.127 262.062C511.334 260.585 518.495 259.116 525.645 257.749C547.592 253.552 569.507 250.293 592.583 250.567L592.585 250.567C621.033 250.85 649.251 237.909 677.341 223.746C680.404 222.202 683.464 220.644 686.524 219.086C711.596 206.321 736.588 193.596 761.827 189.124L458.59 269.617M458.557 270.534L458.59 269.617M458.557 270.534C458.558 270.534 458.558 270.534 458.559 270.534L458.59 269.617M458.557 270.534C452.412 271.462 445.131 269.654 437.398 266.636C430.257 263.848 422.616 259.979 414.985 256.115C414.328 255.782 413.671 255.45 413.014 255.117C404.713 250.921 396.476 246.841 388.876 244.213C381.247 241.576 374.411 240.459 368.883 242.016L368.879 242.017C340.178 249.981 321.05 272.173 307.419 297.51C295.859 318.997 288.32 342.616 282.276 361.55C281.184 364.968 280.142 368.234 279.133 371.307M458.59 269.617C447.209 271.337 431.393 263.328 415.461 255.261C398.22 246.531 380.842 237.732 368.805 241.122C315.086 256.027 294.62 320.149 281.446 361.421C280.357 364.834 279.318 368.091 278.313 371.151M279.133 371.307C279.134 371.306 279.134 371.304 279.134 371.303L278.313 371.151M279.133 371.307C279.133 371.308 279.133 371.309 279.132 371.31L278.313 371.151M279.133 371.307C273.789 387.932 272.305 404.86 272.816 421.51M278.313 371.151C272.919 387.929 271.431 404.983 271.944 421.706M557.859 564.274C572.606 573.818 592.587 581.68 615.454 577.972C659.393 571.008 693.735 530.84 718.638 501.713C723.208 496.367 727.461 491.393 731.396 487.065C735.131 482.965 738.924 478.676 742.809 474.281C762.355 452.178 784.257 427.41 812.963 410.57C819.543 406.741 826.347 403.454 833.396 400.521L557.859 564.274ZM557.859 564.274C546.012 556.657 536.142 547.519 526.265 538.375C518.349 531.046 510.428 523.713 501.482 517.154M557.859 564.274L501.482 517.154M271.944 421.706L272.816 421.508C272.816 421.509 272.816 421.51 272.816 421.51M271.944 421.706C273.502 466.285 304.118 507.08 379.107 499.404M271.944 421.706L272.816 421.512C272.816 421.512 272.816 421.511 272.816 421.51M272.816 421.51C273.588 443.595 281.556 464.726 298.607 479.39C315.655 494.052 341.848 502.303 379.177 498.482M379.107 499.404L379.177 498.482M379.107 499.404C414.903 495.69 444.088 493.386 469.712 501.024M379.107 499.404L379.179 498.482C379.178 498.482 379.178 498.482 379.177 498.482M379.177 498.482C414.951 494.77 444.29 492.441 470.078 500.127M469.712 501.024L470.078 500.127M469.712 501.024C480.894 504.309 491.314 509.512 501.482 517.154M469.712 501.024L470.08 500.128C470.079 500.127 470.078 500.127 470.078 500.127M470.078 500.127C481.342 503.437 491.835 508.677 502.063 516.365M501.482 517.154L502.058 516.362C502.06 516.363 502.062 516.364 502.063 516.365M501.482 517.154L502.065 516.366C502.064 516.366 502.064 516.365 502.063 516.365" stroke="#4F4F4F" stroke-width="2" stroke-miterlimit="10"/>
<path d="M551.194 577.761L551.189 577.758C539.664 570.155 529.944 561.257 520.307 552.198C519.485 551.425 518.663 550.651 517.841 549.877C509.036 541.582 500.175 533.234 489.982 525.764C478.697 517.406 467.129 511.684 455.054 508.06C427.102 499.408 395.195 501.928 355.985 506.082L355.985 506.082C314.927 510.458 286.141 501.369 267.415 485.189C248.686 469.008 239.959 445.681 239.13 421.44L239.13 421.439C238.493 403.288 239.874 384.684 245.981 366.136L245.981 366.135C247.144 362.588 248.348 358.802 249.611 354.829C256.189 334.132 264.383 308.348 276.926 284.841C291.86 256.85 312.862 232.271 344.478 223.436C350.584 221.742 358.124 223.028 366.522 225.992C374.892 228.946 383.961 233.509 393.093 238.195C393.794 238.554 394.495 238.914 395.196 239.274C403.614 243.6 412.039 247.929 419.907 251.048C428.405 254.417 436.39 256.433 443.112 255.415C460.468 252.88 477.282 249.428 493.9 246.015C501.632 244.428 509.322 242.849 517.003 241.375C541.222 236.729 565.432 233.113 590.896 233.491C622.015 233.952 652.858 219.593 683.588 203.829C686.988 202.085 690.386 200.324 693.783 198.563C721.164 184.374 748.483 170.216 776.115 165.24L776.118 165.239C781.261 164.293 786.345 166.115 791.457 169.738C796.561 173.354 801.588 178.69 806.612 184.572C808.721 187.042 810.839 189.62 812.959 192.2C815.855 195.725 818.755 199.254 821.64 202.517C826.654 208.188 831.735 213.191 836.935 216.231C841.519 218.931 846.091 220.196 850.983 219.05L850.991 219.048L850.999 219.046C898.372 207.079 939.396 218.732 968.63 239.05C977.762 245.435 986.877 253.599 991.289 267.021L991.298 267.049L991.31 267.076C991.39 267.27 991.424 267.43 991.47 267.657L991.472 267.67C991.517 267.891 991.574 268.171 991.704 268.497C997.017 286.441 992.589 307.954 983.072 327.16C973.545 346.386 958.995 363.139 944.288 371.544C929.495 379.997 914.418 383.596 899.182 386.589C896.963 387.025 894.74 387.448 892.513 387.872C879.494 390.35 866.369 392.847 853.381 398.036C845.422 401.055 837.96 404.787 830.731 409.06C798.771 427.681 774.564 455.323 753.228 479.689C749.066 484.442 745.013 489.07 741.032 493.482C736.552 498.384 731.723 504.026 726.534 510.088C715.444 523.044 702.713 537.918 688.242 551.582C667.043 571.598 642.304 588.81 614.005 593.174C588.839 597.032 567.144 588.466 551.194 577.761Z" stroke="#4F4F4F" stroke-width="2" stroke-miterlimit="10"/>
<path d="M543.972 592.032L543.969 592.03C531.533 583.649 521.05 573.913 510.689 563.991C509.629 562.976 508.57 561.959 507.511 560.941C498.224 552.02 488.881 543.046 478.2 534.923L478.196 534.92C466.132 525.865 453.763 519.635 440.582 515.715C409.861 506.515 375.67 509.206 333.031 513.618L333.029 513.618C287.967 518.388 256.512 508.415 236.106 490.715C215.696 473.011 206.274 447.523 205.389 421.117L205.389 421.113C204.648 401.29 206.488 380.95 213.065 360.661C214.376 356.65 215.733 352.353 217.16 347.836C224.287 325.277 233.153 297.212 246.703 271.606C262.95 240.904 285.833 213.929 320.358 204.311C327.044 202.478 335.294 203.921 344.465 207.198C353.607 210.465 363.513 215.495 373.479 220.659C374.277 221.073 375.076 221.487 375.874 221.902C385.029 226.653 394.182 231.403 402.728 234.842C411.994 238.571 420.681 240.818 427.974 239.757L427.978 239.757C446.545 236.967 464.537 233.235 482.321 229.546C491.108 227.723 499.845 225.911 508.574 224.228C534.999 219.134 561.435 215.21 589.294 215.691L589.295 215.691C622.958 216.244 656.427 200.509 689.8 183.182C693.586 181.217 697.371 179.231 701.155 177.245C730.796 161.691 760.386 146.164 790.253 140.614C795.824 139.59 801.308 141.623 806.804 145.636C812.293 149.643 817.686 155.543 823.07 162.045C825.343 164.789 827.623 167.653 829.905 170.519C832.997 174.402 836.092 178.289 839.175 181.888C844.549 188.162 849.996 193.7 855.582 197.089C860.417 200.152 865.551 201.575 870.767 200.207C922.502 187.16 967.095 199.866 998.678 222.077C1008.56 229.134 1018.41 237.957 1023.27 252.574C1023.26 253.286 1023.52 253.919 1023.71 254.36L1023.72 254.396C1029.57 273.995 1024.71 297.516 1014.34 318.506C1003.95 339.517 988.101 357.827 972.18 366.982L972.18 366.982C956.023 376.289 939.638 380.222 923.064 383.479C920.616 383.961 918.163 384.427 915.706 384.895C901.567 387.584 887.294 390.299 873.079 395.971C864.223 399.433 856.152 403.587 848.342 408.087L848.332 408.093C813.837 428.494 787.688 458.373 764.573 484.787C759.843 490.191 755.24 495.451 750.718 500.455C746.027 505.636 740.966 511.58 735.529 517.966C723.361 532.256 709.307 548.76 693.297 563.891C670.17 585.748 643.141 604.544 612.252 609.29L612.251 609.29C585.073 613.487 561.236 603.772 543.972 592.032Z" stroke="#4F4F4F" stroke-width="2" stroke-miterlimit="10"/>
<path d="M536.815 606.27L536.814 606.269C523.468 597.11 512.218 586.585 501.053 575.9C500.206 575.089 499.359 574.277 498.511 573.465C488.203 563.583 477.834 553.643 465.857 544.658L465.854 544.656C452.73 534.928 439.549 528.385 425.295 523.984L425.291 523.983C392.391 514.006 355.657 516.699 309.578 521.553L309.575 521.553C260.642 526.89 226.594 516.077 204.546 496.857C182.495 477.634 172.384 449.946 171.442 421.384L171.442 421.379C170.613 399.676 172.351 377.661 179.669 355.639L179.669 355.639C181.279 350.791 182.945 345.553 184.704 340.023C192.374 315.908 201.812 286.235 216.074 259.076C233.589 225.722 258.276 196.364 295.716 185.876C302.911 183.867 311.832 185.445 321.763 189.024C331.664 192.592 342.413 198.087 353.23 203.728C354.083 204.172 354.936 204.618 355.789 205.064C365.74 210.261 375.692 215.458 384.975 219.221C395.03 223.295 404.438 225.748 412.307 224.597L412.308 224.597C432.634 221.597 452.352 217.507 471.862 213.459C481.178 211.526 490.446 209.603 499.711 207.814C528.406 202.271 557.138 197.99 587.386 198.574C623.718 199.306 659.811 182.154 695.823 163.225C699.942 161.06 704.059 158.872 708.176 156.685C740.13 139.705 772.052 122.743 804.317 116.687C810.241 115.592 816.089 117.825 821.959 122.213C827.82 126.593 833.591 133.034 839.355 140.13C841.792 143.13 844.237 146.259 846.685 149.391C849.993 153.625 853.305 157.864 856.606 161.795C862.366 168.655 868.202 174.717 874.175 178.453L874.181 178.456L874.187 178.46C879.552 181.658 884.664 183.274 890.45 181.868L890.457 181.866C946.54 167.746 994.395 181.708 1028.63 205.604C1039.56 213.328 1050.18 223.033 1055.49 238.749C1055.47 239.46 1055.74 240.093 1055.92 240.534L1055.94 240.567C1062.16 261.922 1056.9 287.4 1045.67 310.116C1034.43 332.856 1017.29 352.67 1000.01 362.676C982.645 372.729 964.884 376.998 946.902 380.547C944.27 381.067 941.634 381.571 938.993 382.076C923.624 385.014 908.113 387.979 892.737 394.146L892.73 394.149C883.276 398.027 874.618 402.41 866.191 407.336L866.189 407.337C828.601 429.425 800.285 462.021 775.372 490.7C770.359 496.47 765.484 502.082 760.7 507.418C755.664 512.998 750.225 519.414 744.374 526.315C731.268 541.773 716.098 559.666 698.779 576.064C673.767 599.748 644.456 620.12 610.855 625.162L610.852 625.163C581.095 629.738 555.384 619.038 536.815 606.27Z" stroke="#4F4F4F" stroke-width="2" stroke-miterlimit="10"/>
<path d="M529.655 620.505L529.652 620.504C515.395 610.566 503.383 599.203 491.381 587.708C490.891 587.239 490.401 586.77 489.911 586.3C478.406 575.276 466.824 564.177 453.239 554.214C439.35 543.597 424.802 536.592 409.74 531.879L409.736 531.877C374.649 521.121 335.346 524.007 285.823 529.305L285.822 529.305C233.171 535.014 196.527 523.313 172.799 502.572C149.068 481.829 138.193 451.986 137.194 421.264C136.542 397.85 138.459 374.124 146.245 350.369L146.245 350.368C147.895 345.306 149.603 339.845 151.405 334.082C159.574 307.966 169.684 275.641 185.091 246.075C203.881 210.015 230.447 178.263 270.796 166.993C278.571 164.846 288.199 166.593 298.901 170.499C309.572 174.395 321.154 180.374 332.804 186.505C333.701 186.977 334.599 187.45 335.496 187.923C346.235 193.583 356.972 199.242 366.983 203.336C377.805 207.762 387.918 210.422 396.365 209.181L396.366 209.181C418.251 205.938 439.441 201.502 460.413 197.112C470.427 195.015 480.391 192.93 490.356 190.989C521.223 184.979 552.185 180.343 584.968 181.021C623.983 181.834 662.769 163.304 701.458 142.812C705.997 140.408 710.534 137.977 715.071 135.546C749.278 117.22 783.438 98.9185 817.907 92.2965C824.336 91.0711 830.64 93.4915 836.934 98.2543C843.22 103.01 849.382 110.014 855.523 117.728C858.142 121.017 860.768 124.45 863.395 127.884C866.893 132.456 870.393 137.032 873.883 141.276C880.009 148.728 886.216 155.305 892.584 159.342C898.221 162.916 903.9 164.477 909.957 163.055L909.965 163.053L909.973 163.051C969.846 147.895 1021.55 162.888 1058.14 188.678L1058.14 188.679C1070.17 197.102 1081.59 207.537 1087.03 224.642L1087.04 224.674L1087.05 224.704C1087.15 224.947 1087.25 225.239 1087.36 225.565L1087.36 225.574C1087.46 225.87 1087.57 226.196 1087.69 226.484C1094.45 249.493 1088.76 276.979 1076.67 301.478C1064.57 326 1046.14 347.37 1027.65 358.125L1027.95 358.921L1027.65 358.125C1008.92 369.031 989.781 373.637 970.427 377.454C967.582 378.015 964.731 378.559 961.877 379.104C945.352 382.258 928.692 385.438 912.189 392.087L912.184 392.089C902.139 396.2 892.586 401.025 883.544 406.376L883.54 406.378C843.716 430.188 813.531 464.944 786.877 495.634C781.258 502.104 775.796 508.394 770.433 514.362L770.432 514.363C765.184 520.221 759.514 526.936 753.415 534.157C739.236 550.946 722.745 570.473 703.883 588.343C676.944 613.864 645.345 635.818 609.157 641.242C577.398 645.969 549.507 634.488 529.655 620.505ZM150.57 333.973C148.771 339.725 147.068 345.171 145.425 350.211L585.14 180.094C541.64 179.195 501.361 187.627 460.364 196.209C439.406 200.597 418.26 205.023 396.4 208.263C380.593 210.585 358.372 198.874 335.983 187.074C311.803 174.331 287.428 161.484 270.722 166.098C196.598 186.802 168.705 275.989 150.57 333.973Z" stroke="#4F4F4F" stroke-width="2" stroke-miterlimit="10"/>
<path d="M522.424 634.785L522.423 634.784C507.258 624.069 494.556 611.866 481.938 599.502C481.107 598.687 480.276 597.872 479.445 597.057C467.668 585.501 455.825 573.881 442.02 563.344L442.017 563.341C427.071 552.052 411.726 544.541 395.557 539.531L395.555 539.53C358.003 528.018 315.871 530.926 263.187 536.648L263.186 536.648C206.525 542.842 167.207 530.352 141.796 508.139C116.382 485.923 104.812 453.923 103.767 420.946C102.99 396.04 105.105 370.418 113.356 344.933C115.16 339.398 117.028 333.41 119.003 327.081C127.706 299.187 138.478 264.665 154.872 233.061C174.97 194.318 203.414 160.173 246.671 148.123L246.671 148.123C255.029 145.792 265.365 147.685 276.838 151.91C288.28 156.124 300.694 162.592 313.176 169.226C314.16 169.748 315.144 170.272 316.129 170.796C327.611 176.908 339.085 183.015 349.782 187.438C361.369 192.23 372.185 195.109 381.209 193.778L381.21 193.778C404.512 190.312 427.105 185.585 449.48 180.903C460.36 178.627 471.188 176.361 482.021 174.256C515.159 167.819 548.415 162.871 583.591 163.653L583.764 162.726L583.592 163.653C625.146 164.559 666.481 144.662 707.774 122.614C712.641 120.015 717.507 117.387 722.373 114.758C758.867 95.046 795.361 75.3336 832.24 68.1211C839.026 66.823 845.695 69.4454 852.363 74.5834C859.022 79.7135 865.561 87.2593 872.083 95.5673C874.866 99.1126 877.655 102.81 880.447 106.51C884.163 111.435 887.881 116.364 891.59 120.942C898.102 128.978 904.694 136.079 911.449 140.463L911.455 140.466C917.339 144.197 923.558 146.114 929.946 144.469C994.174 128.237 1049.45 144.282 1088.38 171.962L1088.38 171.966C1101.2 180.891 1113.39 192.017 1119.27 210.398C1119.38 210.78 1119.49 211.112 1119.59 211.424L1119.6 211.429C1119.7 211.75 1119.81 212.05 1119.9 212.393L1119.9 212.401C1127.08 237.084 1121.03 266.59 1108.15 292.878C1095.26 319.175 1075.61 342.09 1055.76 353.603L1056.07 354.399L1055.76 353.603C1035.68 365.267 1015.17 370.165 994.444 374.248C991.542 374.82 988.634 375.376 985.723 375.933C967.886 379.344 949.913 382.78 932.119 390.056L932.113 390.058C921.181 394.608 911.037 399.665 901.38 405.44C858.35 431.154 825.958 468.635 797.46 501.61C791.625 508.362 785.954 514.924 780.388 521.158L780.386 521.159C774.856 527.373 768.879 534.49 762.45 542.145C747.277 560.211 729.587 581.274 709.313 600.527C680.484 627.903 646.598 651.437 607.694 657.158L607.693 657.158C573.351 662.265 543.583 649.799 522.424 634.785Z" stroke="#4F4F4F" stroke-width="2" stroke-miterlimit="10"/>
<path d="M790.08 528.39L790.077 528.393C784.271 534.928 777.99 542.411 771.231 550.465C755.045 569.751 736.116 592.305 714.399 612.918C683.648 642.105 647.477 667.217 605.988 673.318C569.651 678.575 537.988 665.31 515.259 649.1C499.184 637.607 485.721 624.567 472.295 611.461L471.275 610.466C458.199 597.7 445.095 584.905 429.626 573.528C413.905 561.545 397.765 553.53 380.494 548.225L380.492 548.224C340.741 536.124 296.067 539.034 239.94 545.199C179.422 551.774 137.512 538.396 110.458 514.661C83.4009 490.923 71.1371 456.767 70.0352 421.632L70.0351 421.631C69.1526 395.043 71.4453 367.719 80.443 340.49L80.4433 340.489C82.5303 334.154 84.6901 327.263 86.9782 319.962C96.2365 290.422 107.597 254.175 124.745 220.935C146.114 179.514 176.364 142.982 222.538 130.058L222.541 130.057C231.409 127.55 242.4 129.58 254.606 134.109C266.781 138.626 280.003 145.563 293.3 152.676C294.333 153.228 295.367 153.782 296.401 154.336C308.65 160.898 320.895 167.457 332.308 172.207C344.659 177.347 356.178 180.433 365.778 179.012L365.779 179.012C390.64 175.303 414.738 170.229 438.606 165.204C450.197 162.763 461.733 160.334 473.276 158.078C508.618 151.172 544.102 145.872 581.669 146.756C625.893 147.841 669.854 126.526 713.788 102.873C718.984 100.075 724.18 97.2454 729.375 94.4153C768.189 73.2741 807.022 52.1219 846.306 44.4023L846.306 44.4022C853.524 42.9802 860.579 45.7812 867.611 51.2846C874.633 56.7798 881.512 64.8743 888.377 73.791C891.262 77.5375 894.152 81.4411 897.047 85.3499C901.008 90.7005 904.978 96.0609 908.949 101.041C915.833 109.676 922.826 117.308 930.038 122.035C936.174 126.331 942.675 128.212 949.615 126.533L949.624 126.531C1018.2 109.224 1076.74 126.526 1118.32 155.892C1131.92 165.515 1144.9 177.34 1151.2 197.014L1151.21 197.045L1151.22 197.075C1151.43 197.566 1151.62 198.247 1151.83 198.995L1151.83 199C1159.4 225.346 1152.93 256.858 1139.19 284.925C1125.44 313 1104.49 337.467 1083.3 349.737L1083.3 349.739C1061.86 362.255 1040.04 367.484 1017.98 371.831C1014.84 372.449 1011.71 373.048 1008.57 373.648C989.614 377.269 970.498 380.921 951.479 388.677C939.966 393.274 929.211 398.754 918.95 404.947C873.472 432.089 839.156 471.817 808.905 506.841C802.469 514.292 796.216 521.531 790.08 528.39Z" stroke="#4F4F4F" stroke-width="2" stroke-miterlimit="10"/>
<path d="M47.3555 334.609C49.6079 327.776 51.9406 320.319 54.4166 312.403C64.1912 281.156 76.1979 242.773 94.3047 207.527C116.982 163.387 149.117 124.394 198.216 110.649L198.218 110.648C207.597 108.001 219.263 110.192 232.235 115.038C245.173 119.871 259.245 127.278 273.4 134.866C274.443 135.425 275.486 135.985 276.53 136.545C289.629 143.576 302.728 150.607 314.93 155.69C328.076 161.167 340.323 164.447 350.503 162.928L350.504 162.928C376.794 158.974 402.305 153.587 427.585 148.249C440.045 145.618 452.449 142.998 464.863 140.568C502.49 133.203 540.283 127.559 580.259 128.512C627.184 129.639 673.853 106.863 720.477 81.5881C726.026 78.58 731.574 75.5366 737.122 72.4933C778.268 49.9235 819.415 27.3527 860.976 19.1031L860.976 19.1029C870.292 17.2472 879.346 22.1281 888.377 30.7012C897.292 39.1637 906.004 51.0435 914.752 62.9716L915.015 63.331C923.829 75.349 932.682 87.3834 941.75 95.8047C950.792 104.201 960.244 109.195 970.28 106.696L970.282 106.696C1042.94 88.4605 1105.07 106.757 1149.03 137.972L1149.03 137.974C1163.43 148.084 1177.17 160.779 1183.92 181.73L1183.92 181.732C1193 209.733 1186.43 243.638 1171.82 273.935C1157.21 304.24 1134.63 330.766 1111.92 344.01C1089.12 357.303 1065.91 362.889 1042.47 367.546C1039.16 368.202 1035.86 368.84 1032.54 369.478C1012.38 373.365 992.064 377.281 971.871 385.552C905.346 412.726 859.553 465.955 820.262 511.627C813.486 519.502 806.904 527.153 800.443 534.407L800.441 534.409C794.303 541.332 787.651 549.277 780.485 557.836C763.324 578.334 743.211 602.358 720.129 624.315C687.443 655.408 648.972 682.176 604.893 688.601C565.958 694.271 532.399 680.051 508.349 662.833L507.777 663.63L508.348 662.832C491.345 650.672 477.106 636.859 462.946 622.93C462.301 622.295 461.656 621.66 461.011 621.025C447.506 607.732 433.96 594.399 418.08 582.431L417.495 583.219L418.08 582.431C362.691 540.731 302.722 542.958 217.174 552.477C152.765 559.582 108.239 545.358 79.4907 520.109C50.7378 494.857 37.6988 458.517 36.3886 421.239L35.5165 421.438L36.3886 421.239C35.3925 392.975 37.8762 363.759 47.3555 334.609ZM47.3555 334.609C47.3553 334.609 47.355 334.61 47.3548 334.611L46.5357 334.452M47.3555 334.609C47.3557 334.608 47.356 334.607 47.3562 334.606L46.5357 334.452M46.5357 334.452C48.7792 327.646 51.1058 320.208 53.5774 312.306C75.5993 241.901 109.14 134.669 198.141 109.754L46.5357 334.452Z" stroke="#4F4F4F" stroke-width="2" stroke-miterlimit="10"/>
</svg>
