<svg width="21" height="92" viewBox="0 0 21 92" fill="none" xmlns="http://www.w3.org/2000/svg">
<path d="M21 88.5099C21 89.1643 20.848 89.7559 20.5439 90.2847C20.2398 90.8201 19.8201 91.2398 19.2847 91.5439C18.7559 91.848 18.1676 92 17.5198 92C16.872 92 16.2771 91.8447 15.7351 91.534C15.1997 91.2233 14.7767 90.8003 14.466 90.2649C14.1553 89.7295 14 89.1379 14 88.4901C14 87.8423 14.1553 87.2507 14.466 86.7153C14.7767 86.1865 15.1997 85.7668 15.7351 85.4561C16.2705 85.152 16.8588 85 17.5 85C18.1412 85 18.7295 85.152 19.2649 85.4561C19.8003 85.7668 20.2233 86.1898 20.534 86.7252C20.8447 87.2606 21 87.8555 21 88.5099ZM14.6445 88.4901C14.6445 89.0189 14.7701 89.4981 15.0212 89.9278C15.279 90.364 15.6261 90.7044 16.0623 90.949C16.5052 91.2002 16.991 91.3258 17.5198 91.3258C18.0552 91.3258 18.5378 91.2035 18.9674 90.9589C19.3971 90.721 19.7342 90.3872 19.9788 89.9575C20.2299 89.5279 20.3555 89.0453 20.3555 88.5099C20.3555 87.9745 20.2299 87.492 19.9788 87.0623C19.7276 86.6327 19.3839 86.2956 18.9476 86.051C18.5113 85.8064 18.0288 85.6841 17.5 85.6841C16.9712 85.6841 16.4887 85.8064 16.0524 86.051C15.6161 86.2956 15.2724 86.6294 15.0212 87.0524C14.7701 87.4821 14.6445 87.9613 14.6445 88.4901ZM18.0552 90.3343C17.7776 90.3343 17.5364 90.2715 17.3314 90.1459C17.1331 90.0269 16.9778 89.8484 16.8654 89.6105L15.5765 90.4533L15.5765 89.4221L16.687 88.6983L16.687 88.6586L16.687 88.0142L15.5765 88.0142L15.5765 86.983L19.4235 86.983L19.4235 88.6586C19.4235 89.1808 19.2979 89.5907 19.0467 89.8881C18.8022 90.1856 18.4717 90.3343 18.0552 90.3343ZM17.4603 88.5892C17.4603 88.8206 17.5099 88.9991 17.6091 89.1246C17.7148 89.2568 17.8636 89.3229 18.0552 89.3229C18.2469 89.3229 18.3957 89.2568 18.5014 89.1246C18.6072 88.9991 18.6601 88.8206 18.6601 88.5892L18.6601 88.0042L17.4603 88.0042L17.4603 88.5892Z" fill="#F2F2F2"/>
<path d="M11 81.9931L2.95568 81.9931L11 72.1652L11 69L9.53674e-07 69L8.22061e-07 72.0069L7.81579 72.0069L4.05748e-07 81.5183L2.53355e-07 85L11 85L11 81.9931Z" fill="#F2F2F2"/>
<path d="M3.74792 63.1778C4.15928 65.4331 5.37812 66.6632 7.28255 66.6632C9.68975 66.6632 11 64.6862 11 61.1423L11 53L9.53674e-07 53L8.31888e-07 55.7824L3.58033 55.7824L3.58033 60.0293L4.90885e-07 63.5732L3.42818e-07 66.9561L0.060942 67L3.74792 63.1778ZM8.71468 55.7824L8.71468 61.069C8.71468 62.9289 8.40997 63.8808 7.28255 63.8808C6.17036 63.8808 5.86565 62.9289 5.86565 61.069L5.86565 55.7824L8.71468 55.7824Z" fill="#F2F2F2"/>
<path d="M5.5 34C2.02785 34 8.15562e-07 37.1554 5.81629e-07 42.5C3.47697e-07 47.8446 2.02785 51 5.5 51C8.97215 51 11 47.8446 11 42.5C11 37.1554 8.97215 34 5.5 34ZM5.5 48.1314C3.42838 48.1314 2.18833 46.1385 2.18833 42.5C2.18833 38.8615 3.42838 36.8686 5.5 36.8686C7.57162 36.8686 8.81167 38.8615 8.81167 42.5C8.81167 46.1385 7.57162 48.1314 5.5 48.1314Z" fill="#F2F2F2"/>
<path d="M5.5 17C2.02785 17 8.14082e-07 20.1892 5.76976e-07 25.6063C4.76791e-07 27.8952 0.364721 29.8179 1.42971 31.9847L3.7931 31.9847L3.80769 31.9084C2.81565 29.9858 2.18833 27.9105 2.18833 25.7131C2.18833 21.8678 3.42838 19.8993 5.48541 19.8993C7.57162 19.8993 8.81167 21.9135 8.81167 25.7131C8.81167 27.9105 8.19894 29.9858 7.19231 31.9084L7.2069 32L9.57029 32C10.5477 30.0163 11 27.941 11 25.4385C11 20.174 8.97215 17 5.5 17Z" fill="#F2F2F2"/>
<path d="M3.48463e-07 13.8271L2.09585e-07 17L11 10.2031L11 7.15462L9.53674e-07 -4.80182e-07L8.14796e-07 3.17292L2.20914 4.57274L2.20914 12.505L3.48463e-07 13.8271ZM4.44875 5.97255L8.66897 8.64776L4.44875 11.1674L4.44875 5.97255Z" fill="#F2F2F2"/>
</svg>
